<mxfile host="Electron" agent="Mozilla/5.0 (Windows NT 10.0; Win64; x64) AppleWebKit/537.36 (KHTML, like Gecko) draw.io/28.1.2 Chrome/138.0.7204.243 Electron/37.4.0 Safari/537.36" version="28.1.2">
  <diagram id="stickyNoteUI" name="Sticky Note Application UI (MVC Structure)">
    <mxGraphModel dx="872" dy="529" grid="1" gridSize="10" guides="1" tooltips="1" connect="1" arrows="1" fold="1" page="1" pageScale="1" pageWidth="1169" pageHeight="827" math="0" shadow="0">
      <root>
        <mxCell id="0" />
        <mxCell id="1" parent="0" />
        <mxCell id="ui" value="&lt;font style=&quot;color: rgb(0, 0, 0);&quot;&gt;User Interface (Views)&lt;/font&gt;" style="rounded=1;whiteSpace=wrap;html=1;fillColor=#BBDEFB;strokeColor=#1E88E5;" parent="1" vertex="1">
          <mxGeometry x="100" y="260" width="180" height="70" as="geometry" />
        </mxCell>
        <mxCell id="controller" value="&lt;font style=&quot;color: rgb(0, 0, 0);&quot;&gt;Note Controller (Controllers)&lt;/font&gt;" style="rounded=1;whiteSpace=wrap;html=1;fillColor=#FFE0B2;strokeColor=#F57C00;" parent="1" vertex="1">
          <mxGeometry x="330" y="260" width="200" height="70" as="geometry" />
        </mxCell>
        <mxCell id="model" value="&lt;font style=&quot;color: rgb(0, 0, 0);&quot;&gt;Note Model (Models)&lt;/font&gt;" style="rounded=1;whiteSpace=wrap;html=1;fillColor=#C8E6C9;strokeColor=#388E3C;" parent="1" vertex="1">
          <mxGeometry x="580" y="260" width="180" height="70" as="geometry" />
        </mxCell>
        <mxCell id="storage" value="&lt;font style=&quot;color: rgb(0, 0, 0);&quot;&gt;Storage / Database&lt;/font&gt;" style="rounded=1;whiteSpace=wrap;html=1;fillColor=#FFCDD2;strokeColor=#C62828;" parent="1" vertex="1">
          <mxGeometry x="590" y="370" width="160" height="70" as="geometry" />
        </mxCell>
        <mxCell id="edge1" style="endArrow=block;html=1;rounded=0;" parent="1" source="ui" target="controller" edge="1">
          <mxGeometry relative="1" as="geometry" />
        </mxCell>
        <mxCell id="edge2" style="endArrow=block;html=1;rounded=0;" parent="1" source="controller" target="model" edge="1">
          <mxGeometry relative="1" as="geometry" />
        </mxCell>
        <mxCell id="edge3" style="endArrow=block;html=1;rounded=0;" parent="1" source="model" target="storage" edge="1">
          <mxGeometry relative="1" as="geometry" />
        </mxCell>
        <mxCell id="edge4" style="endArrow=open;html=1;rounded=0;dashed=1;" parent="1" source="controller" target="ui" edge="1">
          <mxGeometry relative="1" as="geometry" />
        </mxCell>
      </root>
    </mxGraphModel>
  </diagram>
</mxfile>
